<?xml version="1.0" encoding="us-ascii" standalone="no"?><svg xmlns="http://www.w3.org/2000/svg" xmlns:xlink="http://www.w3.org/1999/xlink" contentStyleType="text/css" height="462px" preserveAspectRatio="none" style="width:745px;height:462px;background:#FFFFFF;" version="1.1" viewBox="0 0 745 462" width="745px" zoomAndPan="magnify"><defs/><g><text fill="#000000" font-family="sans-serif" font-size="14" font-weight="bold" lengthAdjust="spacing" textLength="151" x="293" y="29.5332">fluxo de autentica&#231;&#227;o</text><line style="stroke:#181818;stroke-width:0.5;stroke-dasharray:5.0,5.0;" x1="104.75" x2="104.75" y1="121.2188" y2="364.5156"/><line style="stroke:#181818;stroke-width:0.5;stroke-dasharray:5.0,5.0;" x1="277.25" x2="277.25" y1="121.2188" y2="364.5156"/><line style="stroke:#181818;stroke-width:0.5;stroke-dasharray:5.0,5.0;" x1="446.25" x2="446.25" y1="121.2188" y2="364.5156"/><line style="stroke:#181818;stroke-width:0.5;stroke-dasharray:5.0,5.0;" x1="626.25" x2="626.25" y1="121.2188" y2="364.5156"/><text fill="#000000" font-family="sans-serif" font-size="14" lengthAdjust="spacing" textLength="48" x="77.75" y="118.1426">Usuario</text><ellipse cx="104.75" cy="52.1094" fill="#E2E2F0" rx="8" ry="8" style="stroke:#181818;stroke-width:0.5;"/><path d="M104.75,60.1094 L104.75,87.1094 M91.75,68.1094 L117.75,68.1094 M104.75,87.1094 L91.75,102.1094 M104.75,87.1094 L117.75,102.1094 " fill="none" style="stroke:#181818;stroke-width:0.5;"/><text fill="#000000" font-family="sans-serif" font-size="14" lengthAdjust="spacing" textLength="48" x="77.75" y="378.0488">Usuario</text><ellipse cx="104.75" cy="389.625" fill="#E2E2F0" rx="8" ry="8" style="stroke:#181818;stroke-width:0.5;"/><path d="M104.75,397.625 L104.75,424.625 M91.75,405.625 L117.75,405.625 M104.75,424.625 L91.75,439.625 M104.75,424.625 L117.75,439.625 " fill="none" style="stroke:#181818;stroke-width:0.5;"/><text fill="#000000" font-family="sans-serif" font-size="14" lengthAdjust="spacing" textLength="29" x="260.25" y="118.1426">Web</text><ellipse cx="277.75" cy="87.6094" fill="#E2E2F0" rx="12" ry="12" style="stroke:#181818;stroke-width:0.5;"/><polygon fill="#181818" points="273.75,75.6094,279.75,70.6094,277.75,75.6094,279.75,80.6094,273.75,75.6094" style="stroke:#181818;stroke-width:1.0;"/><text fill="#000000" font-family="sans-serif" font-size="14" lengthAdjust="spacing" textLength="29" x="260.25" y="378.0488">Web</text><ellipse cx="277.75" cy="397.125" fill="#E2E2F0" rx="12" ry="12" style="stroke:#181818;stroke-width:0.5;"/><polygon fill="#181818" points="273.75,385.125,279.75,380.125,277.75,385.125,279.75,390.125,273.75,385.125" style="stroke:#181818;stroke-width:1.0;"/><text fill="#000000" font-family="sans-serif" font-size="14" lengthAdjust="spacing" textLength="33" x="427.25" y="118.1426">JAVA</text><ellipse cx="446.75" cy="87.6094" fill="#E2E2F0" rx="12" ry="12" style="stroke:#181818;stroke-width:0.5;"/><polygon fill="#181818" points="442.75,75.6094,448.75,70.6094,446.75,75.6094,448.75,80.6094,442.75,75.6094" style="stroke:#181818;stroke-width:1.0;"/><text fill="#000000" font-family="sans-serif" font-size="14" lengthAdjust="spacing" textLength="33" x="427.25" y="378.0488">JAVA</text><ellipse cx="446.75" cy="397.125" fill="#E2E2F0" rx="12" ry="12" style="stroke:#181818;stroke-width:0.5;"/><polygon fill="#181818" points="442.75,385.125,448.75,380.125,446.75,385.125,448.75,390.125,442.75,385.125" style="stroke:#181818;stroke-width:1.0;"/><text fill="#000000" font-family="sans-serif" font-size="14" lengthAdjust="spacing" textLength="61" x="593.25" y="118.1426">Database</text><path d="M608.75,67.6094 C608.75,57.6094 626.75,57.6094 626.75,57.6094 C626.75,57.6094 644.75,57.6094 644.75,67.6094 L644.75,93.6094 C644.75,103.6094 626.75,103.6094 626.75,103.6094 C626.75,103.6094 608.75,103.6094 608.75,93.6094 L608.75,67.6094 " fill="#E2E2F0" style="stroke:#181818;stroke-width:1.5;"/><path d="M608.75,67.6094 C608.75,77.6094 626.75,77.6094 626.75,77.6094 C626.75,77.6094 644.75,77.6094 644.75,67.6094 " fill="none" style="stroke:#181818;stroke-width:1.5;"/><text fill="#000000" font-family="sans-serif" font-size="14" lengthAdjust="spacing" textLength="61" x="593.25" y="378.0488">Database</text><path d="M608.75,391.125 C608.75,381.125 626.75,381.125 626.75,381.125 C626.75,381.125 644.75,381.125 644.75,391.125 L644.75,417.125 C644.75,427.125 626.75,427.125 626.75,427.125 C626.75,427.125 608.75,427.125 608.75,417.125 L608.75,391.125 " fill="#E2E2F0" style="stroke:#181818;stroke-width:1.5;"/><path d="M608.75,391.125 C608.75,401.125 626.75,401.125 626.75,401.125 C626.75,401.125 644.75,401.125 644.75,391.125 " fill="none" style="stroke:#181818;stroke-width:1.5;"/><polygon fill="#181818" points="265.75,174.9219,275.75,178.9219,265.75,182.9219,269.75,178.9219" style="stroke:#181818;stroke-width:1.0;"/><line style="stroke:#181818;stroke-width:1.0;" x1="104.75" x2="271.75" y1="178.9219" y2="178.9219"/><text fill="#000000" font-family="sans-serif" font-size="13" lengthAdjust="spacing" textLength="149" x="111.75" y="174.0654">informar dados de acesso</text><polygon fill="#181818" points="434.75,205.2734,444.75,209.2734,434.75,213.2734,438.75,209.2734" style="stroke:#181818;stroke-width:1.0;"/><line style="stroke:#181818;stroke-width:1.0;" x1="277.75" x2="440.75" y1="209.2734" y2="209.2734"/><text fill="#000000" font-family="sans-serif" font-size="13" lengthAdjust="spacing" textLength="70" x="284.75" y="204.417">efetuar login</text><polygon fill="#181818" points="614.75,235.625,624.75,239.625,614.75,243.625,618.75,239.625" style="stroke:#181818;stroke-width:1.0;"/><line style="stroke:#181818;stroke-width:1.0;" x1="446.75" x2="620.75" y1="239.625" y2="239.625"/><text fill="#000000" font-family="sans-serif" font-size="13" lengthAdjust="spacing" textLength="156" x="453.75" y="234.7686">consultar dados do usuario</text><polygon fill="#181818" points="457.75,265.9766,447.75,269.9766,457.75,273.9766,453.75,269.9766" style="stroke:#181818;stroke-width:1.0;"/><line style="stroke:#181818;stroke-width:1.0;stroke-dasharray:2.0,2.0;" x1="451.75" x2="625.75" y1="269.9766" y2="269.9766"/><text fill="#000000" font-family="sans-serif" font-size="13" lengthAdjust="spacing" textLength="35" x="463.75" y="265.1201">dados</text><polygon fill="#181818" points="288.75,296.3281,278.75,300.3281,288.75,304.3281,284.75,300.3281" style="stroke:#181818;stroke-width:1.0;"/><line style="stroke:#181818;stroke-width:1.0;" x1="282.75" x2="445.75" y1="300.3281" y2="300.3281"/><text fill="#000000" font-family="sans-serif" font-size="13" lengthAdjust="spacing" textLength="131" x="294.75" y="295.4717">dados de autentica&#231;&#227;o</text><polygon fill="#181818" points="288.75,342.5156,278.75,346.5156,288.75,350.5156,284.75,346.5156" style="stroke:#181818;stroke-width:1.0;"/><line style="stroke:#181818;stroke-width:1.0;stroke-dasharray:2.0,2.0;" x1="282.75" x2="445.75" y1="346.5156" y2="346.5156"/><text fill="#000000" font-family="sans-serif" font-size="13" lengthAdjust="spacing" textLength="145" x="294.75" y="341.6592">usuario ou senha invalido</text><text fill="#888888" font-family="sans-serif" font-size="10" lengthAdjust="spacing" textLength="737" x="0" y="452.5059">https://www.plantuml.com/plantuml/uml/SoWkIImgAStDuNBCoKnELT2rKt3AJx9IS2mjoKZDAybCJYp9pCzJ24ejB4qjBk42oYde0jM05MDHLLoGdrUSoeLkM5u</text><!--SRC=[LL7BRi8m4BpxArQvGr0A1wAgKY2e1K8lb29wSs870ewN-b5eVwU7VWW_LXD2KmwMrZlZ6S-kAOpW8NYvi4S4ne5QmwKfCdhwENsZHt94mvLZR8pPwz3t3uT3Uo-eDBOKxGnB_thnpsUEozruNAwZkOdjys28KpbANW8rDNVHvDWVpuDoYzEtEFfCXvFLlhyVVas2BjyEkk_RmQuRu8hnpdRMwStYfoJ1HwOMS-J9RjQp7Y4qCwZ0MsXBLO4UK0tsKfCCfL4em5loj09ovJfSiWQPHAzH1QKqsvqHHWrDgURWnNLLmInrJi90RTECX26fxQ3ry6SGGY5pL2LLm1n5LrFCkDP8hfGplJODWUVSE14Gk2uagTjd1aj3S9_LLfX62wy9WIZtJiaBq4ZVjnhfnlzcYuHmuLAEbBfTSKOTz4_edzBL52reBZVKPVoWed0J-0K0]--></g></svg>